<svg version="1.2" xmlns="http://www.w3.org/2000/svg" viewBox="0 0 44 44" width="44" height="44"><defs><clipPath clipPathUnits="userSpaceOnUse" id="cp1"><path d="m-522-7405h1366v9096h-1366z"/></clipPath></defs><style>.a{fill:#f7f7f7}</style><g clip-path="url(#cp1)"><path class="a" d="m32.7 21.6l10.7-10.7-10.7-10.8v6.4h-8.6v8.7h8.6zm4.3 9.7c-2.7 0-5.3-0.5-7.7-1.3-0.8-0.2-1.6 0-2.2 0.5l-4.7 4.8c-6.1-3.1-11.1-8.1-14.2-14.2l4.7-4.8c0.6-0.5 0.8-1.4 0.5-2.1-0.8-2.4-1.2-5-1.2-7.7 0-1.2-1-2.2-2.1-2.2h-7.6c-1.2 0-2.1 1-2.1 2.2 0 20.2 16.4 36.6 36.6 36.6 1.2 0 2.1-1 2.1-2.2v-7.5c0-1.2-0.9-2.1-2.1-2.1z"/></g></svg>