<svg version="1.2" xmlns="http://www.w3.org/2000/svg" viewBox="0 0 42 59" width="42" height="59"><defs><clipPath clipPathUnits="userSpaceOnUse" id="cp1"><path d="m-524-7461h1366v9096h-1366z"/></clipPath></defs><style>.a{fill:#f7f7f7}</style><g clip-path="url(#cp1)"><path fill-rule="evenodd" class="a" d="m20.9 50.1c0 0-17.5-19.1-17.5-32.3 0-9.7 7.8-17.5 17.5-17.5 9.7 0 17.6 7.8 17.6 17.5 0 13.2-17.6 32.3-17.6 32.3zm0-26.4c3.3 0 5.9-2.6 5.9-5.9 0-3.2-2.6-5.8-5.9-5.8-3.2 0-5.8 2.6-5.8 5.8 0 3.3 2.6 5.9 5.8 5.9zm20.5 29.3v5.8h-41v-5.8z"/></g></svg>