<svg version="1.2" xmlns="http://www.w3.org/2000/svg" viewBox="0 0 40 56" width="40" height="56"><defs><clipPath clipPathUnits="userSpaceOnUse" id="cp1"><path d="m-554-3270h1366v9096h-1366z"/></clipPath></defs><style>.a{fill:#b999ed}</style><g clip-path="url(#cp1)"><path class="a" d="m11.4 22v-9.8c0-3.6 2.9-6.5 6.5-6.5 3.6 0 6.5 2.9 6.5 6.5v9.8c3.2-2.1 5.2-5.7 5.2-9.8 0-6.5-5.2-11.7-11.7-11.7-6.5 0-11.8 5.2-11.8 11.7 0 4.1 2.1 7.7 5.3 9.8zm25.6 12.1l-11.8-5.9q-0.7-0.3-1.4-0.3h-2v-15.7c0-2.1-1.8-3.9-3.9-3.9-2.2 0-3.9 1.8-3.9 3.9v28l-9-1.8c-0.2-0.1-0.4-0.1-0.6-0.1-0.8 0-1.5 0.3-2.1 0.9l-2 2 12.9 12.9c0.7 0.7 1.7 1.2 2.7 1.2h17.7c2 0 3.5-1.5 3.8-3.4l1.9-13.7q0.1-0.3 0.1-0.5c0-1.7-1-3.1-2.4-3.6z"/></g></svg>