<svg version="1.2" xmlns="http://www.w3.org/2000/svg" viewBox="0 0 51 51" width="51" height="51"><defs><clipPath clipPathUnits="userSpaceOnUse" id="cp1"><path d="m-223-3275h1366v9096h-1366z"/></clipPath></defs><style>.a{fill:#b999ed}</style><g clip-path="url(#cp1)"><path fill-rule="evenodd" class="a" d="m50 19.7v25c0 3.1-2.5 5.6-5.6 5.6h-38.8c-3.1 0-5.6-2.5-5.6-5.6v-38.9c0-3 2.5-5.5 5.6-5.5h24.9v5.5h-25v38.9h38.9v-25zm-13.7-5.7l-5.8-2.6 5.8-2.6 2.6-5.8 2.6 5.8 5.7 2.6-5.7 2.6-2.6 5.7zm-0.2 11.3l-7.6 3.5-3.5 7.6-3.5-7.6-7.6-3.5 7.6-3.5 3.5-7.6 3.5 7.6z"/></g></svg>