<svg version="1.2" xmlns="http://www.w3.org/2000/svg" viewBox="0 0 71 59" width="71" height="59"><defs><clipPath clipPathUnits="userSpaceOnUse" id="cp1"><path d="m-841-3380h1366v9096h-1366z"/></clipPath></defs><style>.a{fill:none;stroke:#b999ed;stroke-linecap:round;stroke-miterlimit:100;stroke-width:4}</style><g clip-path="url(#cp1)"><path fill-rule="evenodd" class="a" d="m7 44.5v-30.6c0-3.7 3-6.6 6.6-6.6h43.7c3.6 0 6.6 2.9 6.6 6.6v30.6c0 3.6-3 6.5-6.6 6.5h-43.7c-3.6 0-6.6-2.9-6.6-6.5zm48.1-26.3h-8.7v11zm-26.3 3.2c-3-4.3-7.8-4.3-10.8 0-3 4.3-3 11.2 0 15.4 3 4.3 7.8 4.3 10.8 0v-7.7h-4.3zm17.5 7.7v11m0-11h6.5m-15.3-10.9v21.9"/></g></svg>